<?xml version="1.0" standalone="no"?>
<!DOCTYPE svg PUBLIC "-//W3C//DTD SVG 20010904//EN"
 "http://www.w3.org/TR/2001/REC-SVG-20010904/DTD/svg10.dtd">
<svg version="1.0" xmlns="http://www.w3.org/2000/svg"
 width="300.000000pt" height="300.000000pt" viewBox="0 0 300.000000 300.000000"
 preserveAspectRatio="xMidYMid meet">
<metadata>
Created by potrace 1.14, written by Peter Selinger 2001-2017
</metadata>
<g transform="translate(0.000000,300.000000) scale(0.100000,-0.100000)"
fill="#000000" stroke="none">
<path d="M0 2310 c0 -658 1 -690 18 -690 10 0 22 4 28 9 10 10 77 18 212 27
l82 5 0 510 0 509 480 0 480 0 0 60 c0 33 4 60 10 60 6 0 10 24 10 54 0 30 5
58 10 61 6 3 10 24 10 46 l0 39 -670 0 -670 0 0 -690z"/>
<path d="M1380 2966 c0 -19 -4 -38 -10 -41 -5 -3 -10 -33 -10 -66 0 -33 -4
-59 -10 -59 -6 0 -10 -27 -10 -60 l0 -60 161 0 160 0 -5 83 c-10 154 -18 210
-31 224 -10 9 -46 13 -129 13 l-116 0 0 -34z"/>
<path d="M1666 2983 c4 -10 9 -40 12 -68 2 -27 8 -54 13 -59 5 -6 9 -47 9 -93
l0 -83 490 0 490 0 0 -480 0 -479 77 -3 c65 -3 78 -6 81 -20 3 -16 -6 -18 -77
-18 l-81 0 0 -79 c0 -54 4 -81 13 -85 10 -5 10 -7 0 -12 -9 -4 -13 -31 -13
-86 l0 -80 63 4 c34 2 70 8 80 12 13 6 17 4 17 -10 0 -23 -59 -44 -120 -44
l-40 0 0 -480 0 -480 -489 0 -490 0 -5 -103 c-3 -56 -8 -132 -11 -169 l-7 -68
661 0 661 0 0 1500 0 1500 -671 0 c-636 0 -671 -1 -663 -17z"/>
<path d="M380 2151 l0 -489 48 -6 c26 -4 75 -9 110 -12 34 -3 62 -10 62 -15 0
-5 18 -9 40 -9 22 0 40 -4 40 -10 0 -5 18 -10 40 -10 22 0 40 -4 40 -10 0 -5
9 -10 20 -10 11 0 20 -4 20 -10 0 -5 14 -10 30 -10 17 0 30 -4 30 -10 0 -5 9
-10 20 -10 11 0 20 -4 20 -10 0 -5 6 -10 14 -10 17 0 100 42 104 53 2 4 12 7
23 7 10 0 19 4 19 8 0 5 12 15 28 23 15 8 39 26 54 41 14 16 31 28 37 28 6 0
11 5 11 10 0 6 5 10 11 10 13 0 159 150 159 162 0 5 11 20 24 33 14 14 33 38
42 55 10 16 22 30 26 30 4 0 8 14 8 30 0 17 -4 30 -10 30 -5 0 -10 9 -10 20 0
11 -4 20 -10 20 -5 0 -10 9 -10 20 0 11 -4 20 -10 20 -5 0 -10 9 -10 19 0 11
-4 23 -10 26 -5 3 -10 17 -10 31 0 13 -4 24 -10 24 -5 0 -10 15 -10 34 0 19
-4 38 -10 41 -5 3 -10 24 -10 46 0 21 -4 39 -9 39 -5 0 -12 29 -15 65 -3 36
-9 94 -12 130 l-6 65 -459 0 -459 0 0 -489z"/>
<path d="M1340 2572 c0 -37 4 -72 9 -77 5 -6 12 -35 15 -65 7 -82 17 -130 27
-136 5 -3 9 -21 9 -40 0 -19 5 -34 10 -34 6 0 10 -9 10 -20 0 -11 5 -20 10
-20 6 0 10 -13 10 -30 0 -16 5 -30 10 -30 6 0 10 -7 10 -16 0 -15 23 -44 34
-44 3 0 6 6 6 13 0 6 9 23 20 37 11 14 20 35 20 48 0 12 5 22 10 22 6 0 10 9
10 20 0 11 5 20 10 20 6 0 10 14 10 30 0 17 5 30 10 30 6 0 10 14 10 30 0 17
5 30 10 30 6 0 10 18 10 40 0 22 4 40 9 40 5 0 12 28 15 63 3 34 8 83 12 110
l6 47 -161 0 -161 0 0 -68z"/>
<path d="M1696 2593 c-4 -27 -9 -76 -12 -110 -3 -35 -10 -63 -15 -63 -5 0 -9
-15 -9 -34 0 -19 -4 -38 -10 -41 -5 -3 -10 -19 -10 -36 0 -16 -4 -29 -10 -29
-5 0 -10 -13 -10 -30 0 -16 -4 -30 -10 -30 -5 0 -10 -9 -10 -20 0 -11 -9 -35
-20 -55 -11 -20 -20 -42 -20 -50 0 -8 -4 -15 -10 -15 -5 0 -10 -9 -10 -20 0
-11 -4 -20 -10 -20 -5 0 -10 -13 -10 -30 0 -16 5 -30 10 -30 6 0 10 -9 10 -20
0 -11 5 -20 10 -20 6 0 10 -7 10 -15 0 -9 11 -27 25 -41 14 -14 25 -29 25 -33
0 -13 189 -203 230 -231 19 -13 44 -32 54 -42 11 -10 26 -18 33 -18 7 0 13 -3
13 -7 0 -13 54 -35 58 -23 2 5 12 10 23 10 10 0 19 5 19 10 0 6 7 10 16 10 20
0 44 24 44 44 0 9 5 16 10 16 6 0 10 9 10 20 0 11 5 20 10 20 6 0 10 9 10 20
0 11 5 20 10 20 6 0 10 9 10 20 0 11 5 20 10 20 6 0 10 9 10 20 0 11 5 20 10
20 6 0 10 9 10 20 0 11 5 20 10 20 6 0 10 9 10 20 0 11 5 20 10 20 6 0 10 9
10 20 0 11 5 20 10 20 6 0 10 9 10 20 0 11 5 20 10 20 6 0 10 9 10 20 0 11 5
20 10 20 6 0 10 9 10 20 0 11 5 20 10 20 6 0 10 9 10 20 0 11 5 20 10 20 6 0
10 9 10 20 0 11 5 20 10 20 6 0 10 9 10 20 0 11 5 20 10 20 6 0 10 9 10 20 0
11 5 20 10 20 6 0 10 9 10 20 0 11 5 20 10 20 6 0 10 9 10 20 0 11 5 20 10 20
6 0 10 9 10 20 0 11 5 20 10 20 6 0 10 9 10 20 0 11 5 20 10 20 6 0 10 9 10
20 0 11 5 20 10 20 6 0 10 9 10 20 0 11 5 20 10 20 6 0 10 9 10 20 0 11 5 20
10 20 6 0 10 9 10 20 0 11 5 20 10 20 6 0 10 14 10 30 0 17 5 30 10 30 6 0 10
9 10 20 0 11 5 20 10 20 6 0 10 9 10 20 0 20 -7 20 -449 20 l-449 0 -6 -47z"/>
<path d="M2620 2530 c0 -16 -4 -30 -10 -30 -5 0 -10 -9 -10 -20 0 -11 -4 -20
-10 -20 -5 0 -10 -9 -10 -20 0 -11 -4 -20 -10 -20 -5 0 -10 -9 -10 -20 0 -11
-4 -20 -10 -20 -5 0 -10 -9 -10 -20 0 -11 -4 -20 -10 -20 -5 0 -10 -9 -10 -20
0 -11 -4 -20 -10 -20 -5 0 -10 -9 -10 -20 0 -11 -4 -20 -10 -20 -5 0 -10 -9
-10 -20 0 -11 -4 -20 -10 -20 -5 0 -10 -9 -10 -20 0 -11 -4 -20 -10 -20 -5 0
-10 -9 -10 -20 0 -11 -4 -20 -10 -20 -5 0 -10 -9 -10 -20 0 -11 -4 -20 -10
-20 -5 0 -10 -9 -10 -20 0 -11 -4 -20 -10 -20 -5 0 -10 -9 -10 -20 0 -11 -4
-20 -10 -20 -5 0 -10 -9 -10 -20 0 -11 -4 -20 -10 -20 -5 0 -10 -9 -10 -20 0
-11 -4 -20 -10 -20 -5 0 -10 -9 -10 -20 0 -11 -4 -20 -10 -20 -5 0 -10 -9 -10
-20 0 -11 -4 -20 -10 -20 -5 0 -10 -9 -10 -20 0 -11 -4 -20 -10 -20 -5 0 -10
-9 -10 -20 0 -11 -4 -20 -10 -20 -5 0 -10 -9 -10 -20 0 -11 -4 -20 -10 -20 -5
0 -10 -9 -10 -20 0 -11 -4 -20 -10 -20 -5 0 -10 -9 -10 -20 0 -11 -4 -20 -10
-20 -5 0 -10 -9 -10 -20 0 -21 15 -27 25 -10 3 6 15 10 26 10 10 0 27 4 37 9
33 17 89 31 120 31 18 0 32 4 32 9 0 5 28 12 63 15 34 3 83 8 110 12 l47 6 0
419 c0 273 -3 419 -10 419 -5 0 -10 -13 -10 -30z"/>
<path d="M1475 1947 c-6 -7 -22 -28 -35 -47 -13 -19 -44 -54 -67 -79 -23 -24
-45 -52 -48 -60 -3 -9 -18 -24 -34 -34 -16 -9 -55 -42 -87 -72 -31 -30 -63
-55 -70 -55 -8 0 -14 -4 -14 -8 0 -5 -12 -15 -27 -23 -16 -8 -37 -22 -47 -31
-11 -10 -24 -18 -29 -18 -9 0 -41 -30 -36 -33 2 -2 25 -13 52 -26 26 -14 47
-28 47 -33 0 -4 6 -8 14 -8 7 0 26 -12 42 -28 16 -15 45 -38 64 -52 45 -32
148 -135 180 -180 14 -19 37 -48 52 -64 16 -16 28 -33 28 -38 0 -5 7 -16 15
-24 16 -17 28 -9 51 31 34 61 41 71 57 86 9 9 17 21 17 27 0 17 248 262 265
262 8 0 15 5 15 10 0 6 -65 10 -176 10 -143 0 -178 3 -190 15 -14 13 -14 17 0
30 12 12 49 15 200 15 117 0 186 4 186 10 0 6 -6 10 -13 10 -7 0 -38 22 -68
50 -29 27 -57 50 -62 50 -4 0 -32 25 -62 55 -30 30 -55 58 -55 62 0 5 -23 33
-50 62 -28 30 -50 60 -50 66 0 6 -9 17 -20 25 -11 8 -20 22 -20 32 0 21 -10
23 -25 5z"/>
<path d="M2530 1670 c-8 -5 -36 -10 -62 -10 -26 0 -50 -4 -53 -10 -3 -5 -24
-10 -45 -10 -21 0 -42 -4 -45 -10 -3 -5 -17 -10 -30 -10 -13 0 -27 -4 -30 -10
-3 -5 -17 -10 -30 -10 -13 0 -27 -4 -30 -10 -3 -5 -13 -10 -21 -10 -14 0 -64
-43 -64 -55 0 -3 117 -5 260 -5 l260 0 0 80 0 80 -47 0 c-27 0 -55 -5 -63 -10z"/>
<path d="M150 1610 c-8 -5 -36 -10 -62 -10 -27 0 -48 -4 -48 -10 0 -5 -9 -10
-20 -10 -18 0 -20 -7 -20 -80 0 -78 1 -80 24 -80 14 0 28 -4 31 -10 3 -5 35
-10 70 -10 35 0 67 -4 70 -10 3 -5 37 -10 76 -10 l69 0 0 120 0 120 -87 0
c-49 0 -95 -5 -103 -10z"/>
<path d="M380 1499 l0 -121 58 6 c31 4 85 9 120 12 34 3 62 10 62 15 0 5 18 9
40 9 22 0 40 5 40 10 0 6 14 10 30 10 17 0 30 5 30 10 0 6 14 10 30 10 17 0
30 5 30 10 0 6 9 10 20 10 23 0 25 6 7 24 -21 21 -54 36 -81 36 -14 0 -26 5
-26 10 0 6 -13 10 -30 10 -16 0 -30 5 -30 10 0 6 -15 10 -34 10 -19 0 -38 5
-41 10 -3 6 -33 10 -66 10 -33 0 -59 4 -59 10 0 6 -22 10 -50 10 l-50 0 0
-121z"/>
<path d="M920 1472 c0 -7 -9 -12 -19 -12 -11 0 -23 -4 -26 -10 -3 -5 -17 -10
-31 -10 -13 0 -24 -4 -24 -10 0 -5 -11 -10 -24 -10 -14 0 -28 -4 -31 -10 -3
-5 -19 -10 -36 -10 -16 0 -29 -4 -29 -10 0 -5 -17 -10 -38 -10 -21 0 -42 -4
-47 -9 -6 -5 -35 -12 -65 -15 -30 -3 -81 -8 -112 -12 l-58 -6 0 -479 0 -479
470 0 470 0 0 60 c0 33 4 60 10 60 6 0 10 24 10 54 0 30 5 58 10 61 6 3 10 28
10 56 0 27 5 49 10 49 6 0 10 11 10 24 0 14 5 28 10 31 6 3 10 19 10 36 0 16
3 29 8 29 4 0 13 15 20 33 7 17 18 40 23 49 12 23 12 78 -1 78 -5 0 -10 6 -10
13 0 7 -8 22 -18 33 -10 10 -29 35 -42 54 -30 42 -226 240 -238 240 -5 0 -23
14 -40 30 -18 17 -39 30 -47 30 -8 0 -15 5 -15 10 0 6 -6 10 -13 10 -7 0 -23
9 -35 20 -12 11 -27 20 -35 20 -7 0 -18 5 -25 12 -9 9 -12 9 -12 0z"/>
<path d="M1940 1452 c0 -5 -12 -15 -27 -23 -16 -8 -39 -25 -53 -39 -14 -14
-42 -38 -62 -53 -42 -31 -98 -88 -98 -99 0 -5 -22 -31 -50 -59 -27 -28 -50
-57 -50 -65 0 -8 -4 -14 -10 -14 -5 0 -10 -8 -10 -18 0 -10 -9 -24 -20 -32
-11 -8 -20 -22 -20 -32 0 -10 -4 -18 -10 -18 -5 0 -10 -13 -10 -30 0 -16 5
-30 10 -30 6 0 10 -9 10 -20 0 -11 5 -20 10 -20 6 0 10 -9 10 -20 0 -11 5 -20
10 -20 6 0 10 -9 10 -20 0 -11 5 -20 10 -20 6 0 10 -13 10 -30 0 -16 5 -30 10
-30 6 0 10 -9 10 -19 0 -11 5 -23 10 -26 6 -3 10 -22 10 -41 0 -19 4 -34 9
-34 9 0 14 -31 27 -145 3 -27 10 -54 15 -60 5 -5 9 -19 9 -32 l0 -23 470 0
470 0 0 460 0 460 -70 0 c-40 0 -70 4 -70 10 0 6 -27 10 -60 10 -33 0 -60 4
-60 10 0 6 -22 10 -50 10 -27 0 -50 5 -50 10 0 6 -13 10 -30 10 -16 0 -30 5
-30 10 0 6 -11 10 -24 10 -14 0 -28 5 -31 10 -3 6 -15 10 -26 10 -10 0 -19 5
-19 10 0 6 -9 10 -20 10 -11 0 -20 5 -20 10 0 6 -9 10 -20 10 -11 0 -20 5 -20
10 0 6 -22 10 -50 10 -27 0 -50 -4 -50 -8z"/>
<path d="M2120 1450 c0 -5 14 -10 30 -10 17 0 30 -4 30 -10 0 -5 9 -10 20 -10
11 0 20 -4 20 -10 0 -5 18 -10 40 -10 22 0 40 -4 40 -10 0 -5 15 -10 34 -10
19 0 38 -4 41 -10 3 -5 33 -10 66 -10 33 0 59 -4 59 -10 0 -6 30 -10 70 -10
l70 0 0 60 0 60 -260 0 c-167 0 -260 -4 -260 -10z"/>
<path d="M0 690 l0 -690 680 0 680 0 0 40 c0 22 -4 40 -9 40 -9 0 -12 20 -27
193 l-6 67 -489 0 -489 0 0 500 0 500 -69 0 c-39 0 -73 5 -76 10 -3 6 -35 10
-71 10 -36 0 -64 4 -64 10 0 6 -13 10 -30 10 l-30 0 0 -690z"/>
<path d="M1473 893 c-7 -16 -18 -47 -25 -70 -7 -24 -16 -43 -20 -43 -5 0 -8
-15 -8 -34 0 -19 -4 -38 -10 -41 -5 -3 -10 -24 -10 -46 0 -21 -4 -39 -9 -39
-9 0 -15 -39 -27 -177 l-6 -63 151 0 151 0 0 29 c0 17 -4 33 -10 36 -5 3 -10
31 -10 61 0 30 -4 54 -10 54 -5 0 -10 18 -10 40 0 22 -4 40 -10 40 -5 0 -10
13 -10 29 0 17 -4 33 -10 36 -5 3 -10 15 -10 25 0 11 -9 35 -20 55 -11 20 -20
44 -20 55 0 11 -4 20 -10 20 -5 0 -10 7 -10 16 0 13 -22 44 -32 44 -2 0 -8
-12 -15 -27z"/>
<path d="M1364 268 c9 -121 17 -183 27 -193 5 -5 9 -24 9 -42 l0 -33 120 0
120 0 0 59 c0 33 5 63 10 66 6 3 10 52 10 111 l0 104 -151 0 -151 0 6 -72z"/>
</g>
</svg>
